<?xml version="1.0" standalone="no"?>
<!DOCTYPE svg PUBLIC "-//W3C//DTD SVG 20010904//EN"
 "http://www.w3.org/TR/2001/REC-SVG-20010904/DTD/svg10.dtd">
<svg version="1.0" xmlns="http://www.w3.org/2000/svg"
 width="400.000000pt" height="400.000000pt" viewBox="0 0 400.000000 400.000000"
 preserveAspectRatio="xMidYMid meet">
<g transform="translate(0.000000,400.000000) scale(0.100000,-0.100000)"
fill="#000000" stroke="none">
<path d="M1800 3924 c-14 -2 -59 -9 -100 -15 -262 -37 -537 -146 -781 -308
-461 -307 -777 -827 -840 -1382 -17 -150 -7 -434 20 -573 30 -158 84 -323 152
-466 73 -152 129 -243 227 -369 98 -126 157 -186 272 -283 262 -220 558 -362
900 -430 100 -20 145 -23 345 -23 240 0 297 6 477 51 211 52 415 144 609 273
462 307 775 823 839 1382 18 150 8 434 -19 573 -43 225 -141 478 -258 665 -55
88 -176 245 -247 320 -198 209 -508 404 -791 497 -204 66 -322 85 -565 89
-118 2 -226 2 -240 -1z m515 -82 c389 -69 723 -243 1004 -523 169 -170 290
-344 387 -558 247 -548 210 -1196 -99 -1709 -102 -171 -169 -255 -305 -390
-275 -271 -633 -448 -1037 -513 -119 -20 -437 -17 -560 5 -401 70 -741 245
-1024 527 -341 342 -527 766 -547 1253 -26 601 253 1187 741 1557 278 211 579
326 975 373 81 10 360 -4 465 -22z"/>
</g>
</svg>
